<?xml version="1.0" encoding="UTF-8" standalone="no"?>
<!-- Created with Inkscape (http://www.inkscape.org/) -->

<svg
   xmlns:dc="http://purl.org/dc/elements/1.1/"
   xmlns:cc="http://creativecommons.org/ns#"
   xmlns:rdf="http://www.w3.org/1999/02/22-rdf-syntax-ns#"
   xmlns:svg="http://www.w3.org/2000/svg"
   xmlns="http://www.w3.org/2000/svg"
   xmlns:sodipodi="http://sodipodi.sourceforge.net/DTD/sodipodi-0.dtd"
   xmlns:inkscape="http://www.inkscape.org/namespaces/inkscape"
   width="115.05"
   height="110.61"
   id="svg2"
   version="1.1"
   inkscape:version="0.48.5 r10040"
   sodipodi:docname="stitch.svg">
  <defs
     id="defs4" />
  <sodipodi:namedview
     id="base"
     pagecolor="#ffffff"
     bordercolor="#666666"
     borderopacity="1.0"
     inkscape:pageopacity="0.0"
     inkscape:pageshadow="2"
     inkscape:zoom="1.979899"
     inkscape:cx="43.453843"
     inkscape:cy="57.865875"
     inkscape:document-units="px"
     inkscape:current-layer="layer1"
     showgrid="false"
     inkscape:window-width="1066"
     inkscape:window-height="667"
     inkscape:window-x="273"
     inkscape:window-y="147"
     inkscape:window-maximized="0"
     fit-margin-top="0"
     fit-margin-left="0"
     fit-margin-right="0"
     fit-margin-bottom="0" />
  <metadata
     id="metadata7">
    <rdf:RDF>
      <cc:Work
         rdf:about="">
        <dc:format>image/svg+xml</dc:format>
        <dc:type
           rdf:resource="http://purl.org/dc/dcmitype/StillImage" />
        <dc:title></dc:title>
      </cc:Work>
    </rdf:RDF>
  </metadata>
  <g
     inkscape:label="Layer 1"
     inkscape:groupmode="layer"
     id="layer1"
     transform="translate(-208.61339,-302.37157)">
    <path
       style="fill:#ffffff;fill-opacity:1;stroke:#000000;stroke-opacity:1"
       d="m 287.83256,312.18178 c 0,0 20.70812,38.3858 26.76904,49.49748 6.06092,11.11168 6.06092,19.19289 6.06092,27.77919 0,8.5863 0,32.82996 0,41.92133 0,9.09137 -6.62931,5.46614 -12.62691,-3.03046 -6.06091,-8.58629 -20.1964,-32.40383 -25.75889,-40.91117 -8.58629,-13.13198 -9.59644,-13.63706 -9.59645,-28.28428 -1e-5,-13.6464 -0.94288,-33.33262 -0.50507,-46.46701 0.50507,-15.1523 8.08122,-12.12183 15.65736,-0.50508 z"
       id="path3008"
       inkscape:connector-curvature="0"
       sodipodi:nodetypes="csssssssc" />
    <path
       style="fill:#ffffff;fill-opacity:1;stroke:#000000;stroke-opacity:1"
       d="m 230.38672,427.1735 c 0,0 20.70812,-38.3858 26.76904,-49.49748 6.06092,-11.11168 6.06092,-19.19289 6.06092,-27.77919 0,-8.5863 0,-32.82995 0,-41.92132 0,-9.09137 -6.62931,-5.46614 -12.62691,3.03046 -6.06091,8.58629 -20.1964,32.40382 -25.75889,40.91116 -8.58629,13.13198 -9.59644,13.63706 -9.59645,28.28428 -1e-5,13.6464 -0.94288,33.33262 -0.50507,46.46701 0.50507,15.1523 8.08122,12.12183 15.65736,0.50508 z"
       id="path3008-6"
       inkscape:connector-curvature="0"
       sodipodi:nodetypes="csssssssc" />
  </g>
</svg>
